<svg width="32" height="32" viewBox="0 0 32 32" fill="none" xmlns="http://www.w3.org/2000/svg">
<path d="M16 0C7.16312 0 0 7.16312 0 16C0 24.8369 7.16312 32 16 32C24.8369 32 32 24.8369 32 16C32 7.16312 24.8388 0 16 0ZM23.337 23.0771C23.0504 23.5472 22.4352 23.6962 21.9651 23.4077C18.2087 21.113 13.4798 20.5933 7.9102 21.8658C7.3733 21.9881 6.83831 21.6518 6.71603 21.1149C6.59374 20.578 6.92811 20.043 7.46692 19.9207C13.562 18.5278 18.7896 19.1278 23.0084 21.7053C23.4784 21.9938 23.6274 22.6071 23.3389 23.0771H23.337ZM25.2954 18.7189C24.9343 19.3055 24.1662 19.4908 23.5797 19.1297C19.2787 16.4853 12.7232 15.7191 7.63506 17.2649C6.97588 17.4636 6.27848 17.0929 6.07786 16.4337C5.87915 15.7745 6.25173 15.0791 6.909 14.8784C12.7194 13.1149 19.9436 13.969 24.8827 17.005C25.4693 17.3661 25.6546 18.1342 25.2935 18.7208L25.2954 18.7189ZM25.4636 14.181C20.3067 11.1182 11.7984 10.8374 6.87461 12.3315C6.08359 12.5703 5.24863 12.1251 5.00788 11.3341C4.76905 10.5431 5.21423 9.70814 6.00525 9.4674C11.657 7.75161 21.0537 8.08407 26.9902 11.6074C27.7029 12.0296 27.936 12.9487 27.5137 13.6575C27.0934 14.3683 26.1724 14.6033 25.4636 14.181Z" fill="#1B1A19"/>
</svg>
