<svg version="1.1" id="Layer_1" xmlns="http://www.w3.org/2000/svg" xmlns:xlink="http://www.w3.org/1999/xlink" x="0px" y="0px"
	 width="100%" viewBox="0 0 261 185" enable-background="new 0 0 261 185" xml:space="preserve">
<path fill="#FEFEFE" opacity="1.000000" stroke="none" 
	d="
M164.000000,186.000000 
	C109.333344,186.000000 55.166687,186.000000 1.000022,186.000000 
	C1.000015,124.333351 1.000015,62.666710 1.000007,1.000047 
	C87.999962,1.000031 174.999924,1.000031 261.999908,1.000015 
	C261.999939,62.666622 261.999939,124.333244 261.999969,185.999939 
	C229.500000,186.000000 197.000000,186.000000 164.000000,186.000000 
M254.508484,121.798073 
	C254.357361,121.720741 254.206238,121.643410 253.762009,120.852882 
	C253.177139,120.592094 252.592773,120.104675 252.007309,120.103333 
	C232.024750,120.057335 212.041962,120.031532 192.059784,120.124763 
	C191.023605,120.129593 189.992432,121.207161 188.544006,122.241753 
	C188.364426,122.825211 188.184845,123.408669 187.411667,124.576347 
	C187.711807,129.330765 188.011948,134.085190 188.673294,139.026596 
	C188.673294,139.026596 188.943069,139.330948 189.205551,140.068573 
	C190.102417,140.369247 190.998596,140.930023 191.896255,140.932404 
	C211.780289,140.985077 231.664658,141.006714 251.548294,140.904739 
	C252.779007,140.898438 254.004227,139.827057 255.926910,138.866211 
	C257.797180,133.133209 257.566467,127.522064 254.508484,121.798073 
M222.993805,37.013409 
	C222.993805,37.013409 222.978226,36.991089 222.820816,36.195309 
	C221.650269,35.798191 220.483246,35.065571 219.308655,35.053219 
	C192.695465,34.773281 166.081543,34.549976 139.467255,34.460831 
	C138.645798,34.458084 137.819183,36.001266 136.513702,37.138260 
	C136.261444,37.424103 136.009186,37.709946 135.008865,38.214252 
	C134.633163,42.086052 134.387329,45.975948 133.850891,49.825352 
	C133.074234,55.398487 134.298416,56.983047 139.921371,56.987537 
	C161.071472,57.004425 182.221878,56.936543 203.371552,57.034336 
	C208.658920,57.058784 213.945312,57.775375 219.229095,57.738327 
	C220.483994,57.729523 221.726578,55.966846 222.991547,54.983391 
	C222.991547,54.983391 223.023453,54.979084 223.801468,54.911190 
	C224.525040,53.939152 225.919937,52.923935 225.860657,52.002251 
	C225.533218,46.911701 226.607254,41.497860 222.993805,37.013409 
M255.780319,110.970955 
	C256.518646,109.422546 257.889801,107.878281 257.899933,106.325119 
	C258.041290,84.677773 258.009613,63.029186 257.987457,41.380939 
	C257.982178,36.227993 255.999390,34.177303 250.796356,34.034687 
	C246.548584,33.918255 242.293503,33.936043 238.044571,34.028072 
	C232.158813,34.155552 231.006790,35.439861 231.001785,41.579185 
	C230.991791,53.816765 230.988708,66.054352 230.987976,78.291939 
	C230.987411,87.698250 230.927185,97.105270 231.026047,106.510582 
	C231.078522,111.501312 233.517502,113.948143 238.171173,113.992020 
	C242.666916,114.034409 247.179443,114.203445 251.648727,113.855850 
	C252.817276,113.764969 253.852478,111.959671 255.000183,110.999374 
	C255.000183,110.999374 254.941574,110.949677 255.780319,110.970955 
M28.498936,139.847137 
	C33.663212,139.832947 38.840000,140.042084 43.988899,139.753525 
	C52.223373,139.292053 58.737328,135.552780 62.520046,128.117264 
	C66.432106,120.427483 66.389191,112.502129 60.957935,105.590012 
	C58.215324,102.099594 58.449543,99.667984 60.193363,95.921501 
	C66.089409,83.254257 57.525948,67.204674 43.781849,66.247208 
	C30.548792,65.325333 17.201183,66.047791 4.018617,66.047791 
	C3.742003,66.543411 3.443538,66.828773 3.442963,67.114731 
	C3.396454,90.269691 3.393538,113.424744 3.320696,136.579590 
	C3.312223,139.272919 4.537599,139.931503 7.009184,139.887238 
	C13.837289,139.764923 20.669043,139.846283 28.498936,139.847137 
M101.483788,121.696754 
	C98.704674,121.696754 95.925552,121.696754 92.939713,121.696754 
	C92.939713,117.994377 92.939713,114.781624 92.939713,110.990601 
	C103.969955,110.990601 114.685043,110.990601 125.725677,110.990601 
	C125.725677,106.608803 125.427086,102.771591 125.802345,99.001442 
	C126.256950,94.434120 124.832321,92.893349 120.062492,93.105072 
	C110.975906,93.508415 101.858696,93.222046 92.857674,93.222046 
	C92.857674,89.479164 92.857674,86.398636 92.857674,82.886215 
	C103.859215,82.886215 114.603600,82.886215 125.420197,82.886215 
	C125.420197,76.705292 125.420197,70.971367 125.420197,65.211693 
	C107.192039,65.211693 89.270149,65.211693 71.185600,65.211693 
	C71.185600,90.007477 71.185600,114.581520 71.185600,139.624130 
	C88.653557,139.624130 105.931465,139.665268 123.207420,139.500610 
	C124.056030,139.492523 125.558594,137.722000 125.612648,136.710999 
	C125.868645,131.922653 125.726952,127.113060 125.726952,121.697289 
	C117.720032,121.697289 110.106133,121.697289 101.483788,121.696754 
M173.282104,139.637497 
	C174.745514,139.569443 176.208923,139.501404 177.928146,139.421463 
	C177.928146,133.424606 177.928146,127.705963 177.928146,121.494774 
	C170.942413,121.494774 164.210541,121.494774 157.106537,121.494774 
	C157.106537,102.448189 157.106537,83.889778 157.106537,65.294571 
	C149.811508,65.294571 142.920135,65.294571 136.163422,65.294571 
	C136.163422,90.146591 136.163422,114.698830 136.163422,139.638794 
	C148.418732,139.638794 160.370300,139.638794 173.282104,139.637497 
z"/>
<path fill="#050505" opacity="1.000000" stroke="none" 
	d="
M27.999146,139.847137 
	C20.669043,139.846283 13.837289,139.764923 7.009184,139.887238 
	C4.537599,139.931503 3.312223,139.272919 3.320696,136.579590 
	C3.393538,113.424744 3.396454,90.269691 3.442963,67.114731 
	C3.443538,66.828773 3.742003,66.543411 4.018617,66.047791 
	C17.201183,66.047791 30.548792,65.325333 43.781849,66.247208 
	C57.525948,67.204674 66.089409,83.254257 60.193363,95.921501 
	C58.449543,99.667984 58.215324,102.099594 60.957935,105.590012 
	C66.389191,112.502129 66.432106,120.427483 62.520046,128.117264 
	C58.737328,135.552780 52.223373,139.292053 43.988899,139.753525 
	C38.840000,140.042084 33.663212,139.832947 27.999146,139.847137 
M25.746031,121.939682 
	C30.379387,121.958344 35.089436,122.477051 39.613510,121.783180 
	C41.851051,121.439995 45.343575,118.941719 45.426373,117.277153 
	C45.554935,114.692528 43.609325,111.658569 39.777218,111.702515 
	C35.012356,111.757172 30.246393,111.715630 25.063112,111.715630 
	C25.063112,115.063286 25.063112,118.165573 25.746031,121.939682 
M36.696449,93.619446 
	C39.955673,92.873093 42.401176,91.130600 41.734585,87.506676 
	C41.104603,84.081764 38.448261,82.868423 35.022953,83.016350 
	C31.768564,83.156891 28.503345,83.046585 25.236362,83.046585 
	C25.236362,86.819817 25.236362,90.050858 25.236362,93.670448 
	C28.943258,93.670448 32.394997,93.670448 36.696449,93.619446 
z"/>
<path fill="#050505" opacity="1.000000" stroke="none" 
	d="
M101.988007,121.697021 
	C110.106133,121.697289 117.720032,121.697289 125.726952,121.697289 
	C125.726952,127.113060 125.868645,131.922653 125.612648,136.710999 
	C125.558594,137.722000 124.056030,139.492523 123.207420,139.500610 
	C105.931465,139.665268 88.653557,139.624130 71.185600,139.624130 
	C71.185600,114.581520 71.185600,90.007477 71.185600,65.211693 
	C89.270149,65.211693 107.192039,65.211693 125.420197,65.211693 
	C125.420197,70.971367 125.420197,76.705292 125.420197,82.886215 
	C114.603600,82.886215 103.859215,82.886215 92.857674,82.886215 
	C92.857674,86.398636 92.857674,89.479164 92.857674,93.222046 
	C101.858696,93.222046 110.975906,93.508415 120.062492,93.105072 
	C124.832321,92.893349 126.256950,94.434120 125.802345,99.001442 
	C125.427086,102.771591 125.725677,106.608803 125.725677,110.990601 
	C114.685043,110.990601 103.969955,110.990601 92.939713,110.990601 
	C92.939713,114.781624 92.939713,117.994377 92.939713,121.696754 
	C95.925552,121.696754 98.704674,121.696754 101.988007,121.697021 
z"/>
<path fill="#030303" opacity="1.000000" stroke="none" 
	d="
M172.801971,139.638153 
	C160.370300,139.638794 148.418732,139.638794 136.163422,139.638794 
	C136.163422,114.698830 136.163422,90.146591 136.163422,65.294571 
	C142.920135,65.294571 149.811508,65.294571 157.106537,65.294571 
	C157.106537,83.889778 157.106537,102.448189 157.106537,121.494774 
	C164.210541,121.494774 170.942413,121.494774 177.928146,121.494774 
	C177.928146,127.705963 177.928146,133.424606 177.928146,139.421463 
	C176.208923,139.501404 174.745514,139.569443 172.801971,139.638153 
z"/>
<path fill="#36D29B" opacity="1.000000" stroke="none" 
	d="
M135.756943,37.995789 
	C136.009186,37.709946 136.261444,37.424103 137.217499,37.057396 
	C166.273590,36.981388 194.625916,36.986237 222.978226,36.991089 
	C222.978226,36.991089 222.993805,37.013409 223.049438,37.480442 
	C223.077866,43.624680 223.050659,49.301880 223.023453,54.979084 
	C223.023453,54.979084 222.991547,54.983391 222.517822,54.973465 
	C193.522324,54.963535 165.000534,54.963535 135.756943,54.963535 
	C135.756943,48.871117 135.756943,43.433453 135.756943,37.995789 
z"/>
<path fill="#FEFCE5" opacity="1.000000" stroke="none" 
	d="
M254.948914,110.941757 
	C253.852478,111.959671 252.817276,113.764969 251.648727,113.855850 
	C247.179443,114.203445 242.666916,114.034409 238.171173,113.992020 
	C233.517502,113.948143 231.078522,111.501312 231.026047,106.510582 
	C230.927185,97.105270 230.987411,87.698250 230.987976,78.291939 
	C230.988708,66.054352 230.991791,53.816765 231.001785,41.579185 
	C231.006790,35.439861 232.158813,34.155552 238.044571,34.028072 
	C242.293503,33.936043 246.548584,33.918255 250.796356,34.034687 
	C255.999390,34.177303 257.982178,36.227993 257.987457,41.380939 
	C258.009613,63.029186 258.041290,84.677773 257.899933,106.325119 
	C257.889801,107.878281 256.518646,109.422546 255.345276,110.496368 
	C254.949097,87.408913 254.926178,64.795593 255.088562,42.183601 
	C255.115143,38.482662 254.313980,36.625484 250.143387,36.964859 
	C246.013794,37.300900 241.832001,37.146366 237.680054,37.004002 
	C234.920486,36.909378 233.821426,37.931892 233.828598,40.744514 
	C233.884567,62.692131 233.881119,84.640083 233.811172,106.587654 
	C233.800491,109.940147 234.974304,111.405457 238.500473,111.226456 
	C243.974014,110.948601 249.465210,111.018997 254.948914,110.941757 
z"/>
<path fill="#E5FEF9" opacity="1.000000" stroke="none" 
	d="
M135.382904,38.105022 
	C135.756943,43.433453 135.756943,48.871117 135.756943,54.963535 
	C165.000534,54.963535 193.522324,54.963535 222.509460,54.987221 
	C221.726578,55.966846 220.483994,57.729523 219.229095,57.738327 
	C213.945312,57.775375 208.658920,57.058784 203.371552,57.034336 
	C182.221878,56.936543 161.071472,57.004425 139.921371,56.987537 
	C134.298416,56.983047 133.074234,55.398487 133.850891,49.825352 
	C134.387329,45.975948 134.633163,42.086052 135.382904,38.105022 
z"/>
<path fill="#E5FEF9" opacity="1.000000" stroke="none" 
	d="
M222.899521,36.593201 
	C194.625916,36.986237 166.273590,36.981388 137.458130,36.900127 
	C137.819183,36.001266 138.645798,34.458084 139.467255,34.460831 
	C166.081543,34.549976 192.695465,34.773281 219.308655,35.053219 
	C220.483246,35.065571 221.650269,35.798191 222.899521,36.593201 
z"/>
<path fill="#FCC6E7" opacity="1.000000" stroke="none" 
	d="
M255.232010,139.251221 
	C254.004227,139.827057 252.779007,140.898438 251.548294,140.904739 
	C231.664658,141.006714 211.780289,140.985077 191.896255,140.932404 
	C190.998596,140.930023 190.102417,140.369247 189.455597,139.662659 
	C190.468155,139.197632 191.230667,139.138504 192.459381,139.138062 
	C212.623383,139.151001 232.321167,139.105270 252.383438,139.126617 
	C253.479736,139.111603 254.211533,139.029541 255.016449,139.022522 
	C255.089569,139.097549 255.232010,139.251221 255.232010,139.251221 
z"/>
<path fill="#FCC6E7" opacity="1.000000" stroke="none" 
	d="
M188.958923,121.785294 
	C189.992432,121.207161 191.023605,120.129593 192.059784,120.124763 
	C212.041962,120.031532 232.024750,120.057335 252.007309,120.103333 
	C252.592773,120.104675 253.177139,120.592094 253.655243,121.348740 
	C253.368530,121.913185 253.188568,121.981773 252.545532,121.966927 
	C231.041290,121.850761 210.000107,121.818031 188.958923,121.785294 
z"/>
<path fill="#CA3378" opacity="1.000000" stroke="none" 
	d="
M188.751465,122.013519 
	C210.000107,121.818031 231.041290,121.850761 252.517914,122.224884 
	C252.933121,122.738052 252.912888,122.909851 252.435760,123.066544 
	C231.488708,123.487228 210.946396,122.022110 189.983826,124.032310 
	C189.983826,127.515053 189.748032,130.327728 190.071014,133.074692 
	C190.269226,134.760544 191.323059,136.345779 191.992767,138.251984 
	C191.992935,138.711639 191.993042,138.895508 191.993164,139.079376 
	C191.230667,139.138504 190.468155,139.197632 189.324371,139.293854 
	C188.943069,139.330948 188.673294,139.026596 188.496857,138.486816 
	C188.215378,133.295395 188.110336,128.643768 188.005280,123.992126 
	C188.184845,123.408669 188.364426,122.825211 188.751465,122.013519 
z"/>
<path fill="#E5FEF9" opacity="1.000000" stroke="none" 
	d="
M223.412460,54.945137 
	C223.050659,49.301880 223.077866,43.624680 223.062775,37.483116 
	C226.607254,41.497860 225.533218,46.911701 225.860657,52.002251 
	C225.919937,52.923935 224.525040,53.939152 223.412460,54.945137 
z"/>
<path fill="#FCC6E7" opacity="1.000000" stroke="none" 
	d="
M254.951553,122.049202 
	C257.566467,127.522064 257.797180,133.133209 255.579468,139.058716 
	C255.232010,139.251221 255.089569,139.097549 255.035019,138.559158 
	C254.970825,132.696915 254.961182,127.373055 254.951553,122.049202 
z"/>
<path fill="#B82E6F" opacity="1.000000" stroke="none" 
	d="
M254.730011,121.923637 
	C254.961182,127.373055 254.970825,132.696915 254.961914,138.484131 
	C254.211533,139.029541 253.479736,139.111603 252.374023,138.860184 
	C251.996429,138.349060 251.992722,138.171448 251.994263,137.996582 
	C251.999527,137.999359 251.997086,137.991119 252.221466,137.890808 
	C252.727280,137.593948 252.911804,137.329727 253.147430,136.614349 
	C253.485107,132.203568 253.674805,128.176270 253.803009,123.905396 
	C253.482010,123.463997 253.222519,123.266182 252.944885,123.063858 
	C252.926727,123.059349 252.892654,123.081642 252.892654,123.081642 
	C252.912888,122.909851 252.933121,122.738052 252.980972,122.308304 
	C253.188568,121.981773 253.368530,121.913185 253.801804,121.705338 
	C254.206238,121.643410 254.357361,121.720741 254.730011,121.923637 
z"/>
<path fill="#FCC6E7" opacity="1.000000" stroke="none" 
	d="
M187.708481,124.284241 
	C188.110336,128.643768 188.215378,133.295395 188.316254,138.393326 
	C188.011948,134.085190 187.711807,129.330765 187.708481,124.284241 
z"/>
<path fill="#FCFCFC" opacity="1.000000" stroke="none" 
	d="
M25.404572,121.603767 
	C25.063112,118.165573 25.063112,115.063286 25.063112,111.715630 
	C30.246393,111.715630 35.012356,111.757172 39.777218,111.702515 
	C43.609325,111.658569 45.554935,114.692528 45.426373,117.277153 
	C45.343575,118.941719 41.851051,121.439995 39.613510,121.783180 
	C35.089436,122.477051 30.379387,121.958344 25.404572,121.603767 
z"/>
<path fill="#F0F0F0" opacity="1.000000" stroke="none" 
	d="
M36.271591,93.644943 
	C32.394997,93.670448 28.943258,93.670448 25.236362,93.670448 
	C25.236362,90.050858 25.236362,86.819817 25.236362,83.046585 
	C28.503345,83.046585 31.768564,83.156891 35.022953,83.016350 
	C38.448261,82.868423 41.104603,84.081764 41.734585,87.506676 
	C42.401176,91.130600 39.955673,92.873093 36.271591,93.644943 
z"/>
<path fill="#F9C411" opacity="1.000000" stroke="none" 
	d="
M254.974548,110.970566 
	C249.465210,111.018997 243.974014,110.948601 238.500473,111.226456 
	C234.974304,111.405457 233.800491,109.940147 233.811172,106.587654 
	C233.881119,84.640083 233.884567,62.692131 233.828598,40.744514 
	C233.821426,37.931892 234.920486,36.909378 237.680054,37.004002 
	C241.832001,37.146366 246.013794,37.300900 250.143387,36.964859 
	C254.313980,36.625484 255.115143,38.482662 255.088562,42.183601 
	C254.926178,64.795593 254.949097,87.408913 254.925903,110.485733 
	C254.941574,110.949677 255.000183,110.999374 254.974548,110.970566 
z"/>
<path fill="#CC2770" opacity="1.000000" stroke="none" 
	d="
M251.988998,137.993820 
	C251.992722,138.171448 251.996429,138.349060 252.009537,138.793121 
	C232.321167,139.105270 212.623383,139.151001 192.459381,139.138062 
	C191.993042,138.895508 191.992935,138.711639 192.462234,138.247650 
	C212.617416,137.976288 232.303207,137.985046 251.988998,137.993820 
z"/>
<path fill="#F80B74" opacity="1.000000" stroke="none" 
	d="
M251.994263,137.996582 
	C232.303207,137.985046 212.617416,137.976288 192.462158,137.971863 
	C191.323059,136.345779 190.269226,134.760544 190.071014,133.074692 
	C189.748032,130.327728 189.983826,127.515053 189.983826,124.032310 
	C210.946396,122.022110 231.488708,123.487228 252.435760,123.066544 
	C252.892654,123.081642 252.926727,123.059349 253.042480,123.282852 
	C253.344055,123.775070 253.579468,123.989273 253.864502,124.148972 
	C253.674805,128.176270 253.485107,132.203568 252.927063,136.719727 
	C252.284698,137.407135 252.097488,137.667969 251.997086,137.991119 
	C251.997086,137.991119 251.999527,137.999359 251.994263,137.996582 
z"/>
<path fill="#CA3378" opacity="1.000000" stroke="none" 
	d="
M253.802994,123.905396 
	C253.579468,123.989273 253.344055,123.775070 253.060638,123.287369 
	C253.222519,123.266182 253.482010,123.463997 253.802994,123.905396 
z"/>
<path fill="#CC2770" opacity="1.000000" stroke="none" 
	d="
M252.221466,137.890808 
	C252.097488,137.667969 252.284698,137.407135 252.779083,137.103210 
	C252.911804,137.329727 252.727280,137.593948 252.221466,137.890808 
z"/>
</svg>